<?xml version="1.0" encoding="UTF-8"?>

<svg width="1600px" height="1600px" viewBox="0 0 24 24" fill="none" version="1.1"
    xmlns="http://www.w3.org/2000/svg"
    xmlns:xlink="http://www.w3.org/1999/xlink">
        <path fill-rule="evenodd" clip-rule="evenodd"  d="M10.7722,2.68814 C11.4944,2.12641 12.5057,2.12641 13.2279,2.68814 L21.6117,9.20884 C22.3648,9.79463 21.9492,11 20.9971,11 L20.0001,11 L20.0001,19 C20.0001,20.1046 19.1046,21 18.0001,21 L6.00005,21 C4.89548,21 4.00005,20.1046 4.00005,19 L4.00005,11 L3.00297,11 C2.04989,11 1.63605,9.79401 2.38841,9.20884 L10.7722,2.68814 Z M5.62546,9.22486 C5.85399,9.41004 6.00005,9.69297 6.00005,10.01 L6.00005,19 L18.0001,19 L18.0001,10.01 C18.0001,9.69295 18.1461,9.41003 18.3746,9.22486 L12.0001,4.26685 L5.62546,9.22486 Z"></path>
</svg>